<svg xmlns="http://www.w3.org/2000/svg" viewBox="0 0 68 67.5" x="0px" y="0px"><path fill="#000000" d="M99,953.000021 L99,953.000021 L99,962 C99,963.104569 98.1045695,964 97,964 L83,964 C81.8954305,964 81,963.104569 81,962 L81,953.000021 C80.448814,952.999824 79.9001761,952.773097 79.5051814,952.328728 C78.7713453,951.503162 78.8457068,950.239017 79.6712723,949.505181 L82,947.435201 L82,943 C82,941.895431 82.8954305,941 84,941 C85.1045695,941 86,941.895431 86,943 L86,943.879646 L88.6712723,941.505181 C89.4290444,940.831606 90.5709556,940.831606 91.3287277,941.505181 L100.328728,949.505181 C101.154293,950.239017 101.228655,951.503162 100.494819,952.328728 C100.099824,952.773097 99.551186,952.999824 99,953.000021 Z M85,950.120354 L85,960 L95,960 L95,950.120354 L90,945.67591 L85,950.120354 Z M103,920 C109.160165,920 114.37959,924.30407 115.720405,930.147431 C120.42346,930.962926 124,935.06379 124,940 C124,945.522847 119.522847,950 114,950 L107,950 C105.895431,950 105,949.104569 105,948 C105,946.895431 105.895431,946 107,946 L114,946 C117.313708,946 120,943.313708 120,940 C120,936.686292 117.313708,934 114,934 C112.971058,934 112.110014,933.219293 112.009555,932.195267 C111.55543,927.566155 107.66264,924 103,924 C102.158538,924 101.334423,924.114943 100.54275,924.339013 C99.5401666,924.622778 98.4876922,924.089252 98.1239216,923.112847 C96.0993584,917.678668 90.8962028,914 85,914 C78.5716671,914 73.0139849,918.370033 71.4386595,924.507405 C71.2191935,925.362431 70.4651273,925.972456 69.5831205,926.0085 C64.2390267,926.226893 60,930.632137 60,936 C60,941.522847 64.4771525,946 70,946 L73,946 C74.1045695,946 75,946.895431 75,948 C75,949.104569 74.1045695,950 73,950 L70,950 C62.2680135,950 56,943.731986 56,936 C56,928.975454 61.1839197,923.129314 67.9736218,922.145593 C70.4341691,914.976531 77.2202326,910 85,910 C91.9894466,910 98.2211125,914.020738 101.190715,920.125139 C101.786576,920.042052 102.390748,920 103,920 Z" transform="translate(-56 -910)"/><text x="0" y="69" fill="#000000" font-size="5px" font-weight="bold" font-family="'Helvetica Neue', Helvetica, Arial-Unicode, Arial, Sans-serif">Created by Andrejs Kirma</text><text x="0" y="74" fill="#000000" font-size="5px" font-weight="bold" font-family="'Helvetica Neue', Helvetica, Arial-Unicode, Arial, Sans-serif">from the Noun Project</text></svg>