<svg xmlns="http://www.w3.org/2000/svg" xmlns:xlink="http://www.w3.org/1999/xlink" viewBox="0 0 100 125" version="1.1" x="0px" y="0px"><title>Alert Inverted iPhone 5</title><desc>Created with Sketch.</desc><g stroke="none" stroke-width="1" fill="none" fill-rule="evenodd"><g fill="#000000"><path d="M29,17 C28.4438648,17 28,17.4519098 28,18.0093689 L28,19.9906311 C28,20.5566468 28.4477153,21 29,21 L29,24 C28.4438648,24 28,24.4435864 28,24.990778 L28,29.009222 C28,29.5490248 28.4477153,30 29,30 L29,32 C28.4438648,32 28,32.4435864 28,32.990778 L28,37.009222 C28,37.5490248 28.4477153,38 29,38 L29,90.0006512 C29,92.7585353 31.2406005,95 34.0045213,95 L67.9954787,95 C70.7575421,95 73,92.7617153 73,90.0006512 L73,11.9993488 C73,9.24146466 70.7593995,7 67.9954787,7 L67,7 C67,6.44386482 66.5543453,6 66.0046024,6 L57.9953976,6 C57.4556644,6 57,6.44771525 57,7 L34.0045213,7 C31.2424579,7 29,9.2382847 29,11.9993488 L29,17 Z M47.5,89.5 C47.5,87.5670034 49.0709366,86 51,86 C52.9329966,86 54.5,87.5709366 54.5,89.5 C54.5,91.4329966 52.9290634,93 51,93 C49.0670034,93 47.5,91.4290634 47.5,89.5 Z M31,14 L71,14 L71,84 L31,84 L31,14 Z M46.5,10.5 C46.5,10.2238576 46.7224731,10 47.0096658,10 L54.9903342,10 C55.2718148,10 55.5,10.2319336 55.5,10.5 C55.5,10.7761424 55.2775269,11 54.9903342,11 L47.0096658,11 C46.7281852,11 46.5,10.7680664 46.5,10.5 Z"/><path d="M31.5,14.5 L70.4935897,14.5 L70.4935897,83.5 L31.5,83.5 L31.5,14.5 Z M36.3741987,45 L36.3741987,54.0046024 C36.3741987,54.5443356 36.8249073,55 37.3808844,55 L64.6127053,55 C65.1717217,55 65.619391,54.5543453 65.619391,54.0046024 L65.619391,45 L36.3741987,45 Z M36.3741987,40.4998075 L36.3741987,44.5 L65.619391,44.5 L65.619391,40.4998075 C65.619391,39.9437166 65.1686825,39.5 64.6127053,39.5 L37.3808844,39.5 C36.8218681,39.5 36.3741987,39.9476291 36.3741987,40.4998075 Z"/><rect x="38.3238782" y="46.5" width="23.3961538" height="2"/><rect x="38.3238782" y="49.5" width="16.5722756" height="2"/><rect x="38.3238782" y="40.5" width="2.92451923" height="3" rx="1.46225962"/></g></g><text x="0" y="115" fill="#000000" font-size="5px" font-weight="bold" font-family="'Helvetica Neue', Helvetica, Arial-Unicode, Arial, Sans-serif">Created by Joel Wisneski</text><text x="0" y="120" fill="#000000" font-size="5px" font-weight="bold" font-family="'Helvetica Neue', Helvetica, Arial-Unicode, Arial, Sans-serif">from the Noun Project</text></svg>