<svg xmlns="http://www.w3.org/2000/svg" xmlns:xlink="http://www.w3.org/1999/xlink" version="1.1" x="0px" y="0px" viewBox="0 0 48 60" enable-background="new 0 0 48 48" xml:space="preserve"><g><path fill="none" stroke="#000000" stroke-width="2" stroke-linecap="round" stroke-linejoin="round" stroke-miterlimit="10" d="   M28.818,23.677l-8.366-1.327l-1.699-4.162c-1.021-2.205-1.525-2.799-3.037-3.601c-2.069-1.098-4.633-0.31-5.73,1.76   c-2.249,4.241-3.341,8.532-3.341,13.119c0,2.34,1.896,4.237,4.237,4.237c0.386,0,0.757-0.056,1.111-0.15   c0.232,0.042,0.474,0.062,0.721,0.03c0.027-0.004,1.764-0.189,3.662,0.294l0.054,0.018c0.286,0.073,1.536,0.512,1.822,0.618    M20.244,29.847c-0.644-0.684-4.348-0.863-5.107-0.936c0.046-1.681,0.304-3.284,0.787-4.873l1.3,1.965   c0.222,0.332,0.52,0.599,0.864,0.78l7.235,0.68"/><path fill="none" stroke="#000000" stroke-width="2" stroke-linecap="round" stroke-linejoin="round" stroke-miterlimit="10" d="   M31.599,1c0.895,2.616,1.397,5.51,1.397,8.561c0,11.007-6.486,20.033-14.744,20.939V47h28.41V1H31.599z"/><circle fill="none" stroke="#000000" stroke-width="2" stroke-linecap="round" stroke-linejoin="round" stroke-miterlimit="10" cx="18.252" cy="7.685" r="4.394"/><polyline fill="none" stroke="#000000" stroke-width="2" stroke-linecap="round" stroke-linejoin="round" stroke-miterlimit="10" points="   1.338,18.188 4.372,35.178 4.372,47  "/><polyline fill="none" stroke="#000000" stroke-width="2" stroke-linecap="round" stroke-linejoin="round" stroke-miterlimit="10" points="   4.372,35.178 14.202,35.178 16.507,46.463  "/></g><text x="0" y="63" fill="#000000" font-size="5px" font-weight="bold" font-family="'Helvetica Neue', Helvetica, Arial-Unicode, Arial, Sans-serif">Created by Creative Stall</text><text x="0" y="68" fill="#000000" font-size="5px" font-weight="bold" font-family="'Helvetica Neue', Helvetica, Arial-Unicode, Arial, Sans-serif">from the Noun Project</text></svg>