<svg xmlns:dc="http://purl.org/dc/elements/1.1/" xmlns:cc="http://creativecommons.org/ns#" xmlns:rdf="http://www.w3.org/1999/02/22-rdf-syntax-ns#" xmlns:svg="http://www.w3.org/2000/svg" xmlns="http://www.w3.org/2000/svg" xmlns:sodipodi="http://sodipodi.sourceforge.net/DTD/sodipodi-0.dtd" xmlns:inkscape="http://www.inkscape.org/namespaces/inkscape" viewBox="0 0 420.64453 556.0449874999999" version="1.1" x="0px" y="0px"><g transform="translate(-176.15681,-357.90885)"><path style="" d="m 376.32281,357.90885 c -6.296,0.374 -12.477,1.069 -18.608,2.104 l 0,67.397 -20.308,0 0,-62.866 c -73.116,21.375 -126.541,88.864 -126.541,168.856 l 0,232.692 1.943,0 c -20.215,0 -36.652,16.437 -36.652,36.653 l 420.644,0 c 0.106,-20.174 -16.234,-36.571 -36.49,-36.571 l -38.755,0 0,-25.324 -49.678,0 c 16.528,0 31.068,-8.442 39.726,-21.118 0.663,0.183 1.196,0.445 1.859,0.569 1.616,0.256 3.318,0.328 4.936,0.328 15.783,0 30.031,-12.494 32.849,-30.016 3.149,-19.222 -8.728,-37.15 -26.458,-40.05 -1.654,-0.256 -3.237,-0.416 -4.773,-0.416 -0.256,0 -0.557,0.183 -0.809,0.183 -1.243,-6.297 -6.639,-11.165 -13.35,-11.165 l -110.845,0 c -7.623,0 -13.916,6.171 -13.916,13.834 l 0,39.888 c 0,26.47 21.467,47.979 47.979,47.979 l -40.859,0 0,25.324 -38.756,0 0,-247.661 87.544,0 0,39.97 35.68,0 0,-39.97 89.484,0 c -3.561,-42.667 -22.512,-81.129 -50.971,-109.629 -20.713,-20.713 -46.614,-36.133 -75.488,-44.501 l 0,63.027 -20.388,0 0,-67.477 c -6.132,-0.994 -12.313,-1.648 -18.61,-2.021 l 0,69.5 -20.389,0 0,-69.5 z m -83.82,2.589 c -18.973,0 -34.386,15.332 -34.386,34.305 l 0,10.761 c 13.545,-13.712 29.244,-25.4 46.684,-34.223 l 0,-10.843 -12.298,0 z m -11.166,119.501 c 9.569,0 17.315,7.788 17.315,17.315 0,9.528 -7.787,17.314 -17.315,17.314 -9.528,0 -17.314,-7.744 -17.314,-17.314 0,-9.569 7.745,-17.315 17.314,-17.315 z m 0.07,57.446 c 9.859,0 17.88,7.94 17.88,17.8 l 0,167.723 c 0,9.859 -8.021,17.88 -17.88,17.88 -9.859,0 -17.881,-8.021 -17.881,-17.88 l 0,-167.723 c 0,-9.86 8.022,-17.8 17.881,-17.8 z m 173.548,33.901 c -1.367,0 -2.687,0.623 -3.558,1.698 -5.136,6.297 -13.754,17.924 -13.754,24.758 0,9.528 7.786,17.314 17.315,17.314 9.527,0 17.314,-7.786 17.314,-17.314 0,-6.834 -8.658,-18.419 -13.836,-24.758 -0.872,-1.075 -2.111,-1.698 -3.478,-1.698 z m 12.461,24.273 c 0.455,0 0.889,0.371 0.889,0.889 0,7.373 -6.018,13.35 -13.35,13.35 -0.497,0 -0.889,-0.371 -0.889,-0.89 0,-0.495 0.371,-0.889 0.889,-0.889 6.379,0 11.57,-5.191 11.57,-11.571 0,-0.496 0.434,-0.889 0.889,-0.889 z m -15.616,57.363 c 0.703,0 1.36,0.03 2.023,0.182 -4.39,7.499 -13.786,26.264 -3.802,36.248 6.835,6.834 1.528,21.334 -3.318,31.068 -9.155,-3.728 -15.939,-17.141 -15.939,-33.172 0,-18.931 9.437,-34.305 21.037,-34.305 z m 4.773,0.97 c 9.322,3.562 16.183,17.095 16.183,33.334 0,18.931 -9.357,34.305 -20.956,34.305 -0.787,0 -1.557,-0.07 -2.345,-0.255 5.137,-10.397 10.422,-25.906 2.505,-33.901 -8.782,-8.781 0.759,-26.992 4.612,-33.495 z m 63.271,13.269 c 0.04,0 0.107,0 0.182,0 0.664,0 1.361,0.04 2.105,0.182 3.769,0.62 7.146,2.87 9.466,6.392 2.611,4.018 3.662,9.065 2.833,14.077 -1.451,8.906 -8.194,15.614 -15.858,15.697 0.828,-3.398 1.291,-6.994 1.291,-10.681 l 0,-25.647 z" fill="#000000"/></g><text x="0" y="459.83599" fill="#000000" font-size="5px" font-weight="bold" font-family="'Helvetica Neue', Helvetica, Arial-Unicode, Arial, Sans-serif">Created by Hopkins</text><text x="0" y="464.83599" fill="#000000" font-size="5px" font-weight="bold" font-family="'Helvetica Neue', Helvetica, Arial-Unicode, Arial, Sans-serif">from the Noun Project</text></svg>