<svg xmlns="http://www.w3.org/2000/svg" viewBox="0 0 60 75" x="0px" y="0px"><title>Essentials - Outline - 082 - Contact Card</title><g><path d="M55,9H5a5,5,0,0,0-5,5V46a5,5,0,0,0,5,5H55a5,5,0,0,0,5-5V14A5,5,0,0,0,55,9Zm3,37a3,3,0,0,1-3,3H5a3,3,0,0,1-3-3V14a3,3,0,0,1,3-3H55a3,3,0,0,1,3,3Z"/><path d="M51,14H33a4,4,0,0,0-4,4V42a2.69,2.69,0,0,0,0,.33,1,1,0,0,0,0,.11A4,4,0,0,0,33,46H51a4,4,0,0,0,4-3.56v-.06c0-.12,0-.25,0-.37V18A4,4,0,0,0,51,14Zm1.94,28.46c0,.06,0,.12,0,.18s0,.11-.07.17,0,.11-.07.16l-.1.15-.09.14-.13.14-.11.12-.15.11-.13.09-.18.09-.13.06-.23.06-.12,0A2,2,0,0,1,51,44H33a2,2,0,0,1-.37,0l-.29-.08h0A2,2,0,0,1,31,42.29a11,11,0,0,1,6.8-9.47c.11.07.23.11.34.18l.47.24.49.2c.22.09.44.17.66.23l.2,0a7.44,7.44,0,0,0,4.06,0l.16,0c.24-.07.47-.15.7-.24l.46-.19.49-.26c.11-.06.22-.11.33-.17A11,11,0,0,1,53,42.28C53,42.34,53,42.4,52.94,42.46ZM36,26a6,6,0,1,1,9.47,4.89,6.07,6.07,0,0,1-5.28.82,5.78,5.78,0,0,1-1.66-.82A6,6,0,0,1,36,26ZM53,36.08a12.67,12.67,0,0,0-5.12-4.68,8,8,0,1,0-11.75,0A12.93,12.93,0,0,0,31,36.08V18a2,2,0,0,1,2-2H51a2,2,0,0,1,2,2Z"/><path d="M25,17H6a1,1,0,0,0,0,2H25a1,1,0,0,0,0-2Z"/><path d="M25,21H6a1,1,0,0,0,0,2H25a1,1,0,0,0,0-2Z"/><path d="M25,25H6a1,1,0,0,0,0,2H25a1,1,0,0,0,0-2Z"/></g><text x="0" y="75" fill="#000000" font-size="5px" font-weight="bold" font-family="'Helvetica Neue', Helvetica, Arial-Unicode, Arial, Sans-serif">Created by Creaticca Creative Agency</text><text x="0" y="80" fill="#000000" font-size="5px" font-weight="bold" font-family="'Helvetica Neue', Helvetica, Arial-Unicode, Arial, Sans-serif">from the Noun Project</text></svg>